<svg xmlns="http://www.w3.org/2000/svg" viewBox="0 0 1480 800" width="1480" height="800" font-family="Segoe UI, -apple-system, BlinkMacSystemFont, Helvetica, Arial, sans-serif" role="img" aria-label="Arquitectura de TaskFlow">
<defs>
  <radialGradient id="bg" cx="50%" cy="45%" r="75%"><stop offset="0" stop-color="#16233F"/><stop offset="1" stop-color="#0A1020"/></radialGradient>
  <filter id="sh" x="-30%" y="-30%" width="160%" height="170%"><feDropShadow dx="0" dy="4" stdDeviation="5" flood-color="#000" flood-opacity=".45"/></filter>
  <marker id="a7C8BA1" viewBox="0 0 10 10" refX="8.5" refY="5" markerWidth="7" markerHeight="7" orient="auto-start-reverse"><path d="M0,0 L10,5 L0,10 z" fill="#7C8BA1"/></marker><marker id="s7C8BA1" viewBox="0 0 10 10" refX="8.5" refY="5" markerWidth="7" markerHeight="7" orient="auto-start-reverse"><path d="M0,0 L10,5 L0,10 z" fill="#7C8BA1"/></marker>
</defs>
<rect width="1480" height="800" rx="26" fill="url(#bg)"/>
<text x="36" y="46" font-size="21" font-weight="800" fill="#F8FAFC">TaskFlow</text>
<text x="36" y="70" font-size="12.5" fill="#94A3B8">Tareas personales con analítica en vivo y análisis de archivos, todo en Python sobre Google Cloud Run</text>
<rect x="250" y="130" width="770" height="570" rx="26" fill="#4285F4" fill-opacity=".07" stroke="#4285F4" stroke-opacity=".6" stroke-width="1.6" stroke-dasharray="7 6"/><rect x="268" y="118" width="212.1" height="24" rx="12" fill="#4285F4"/><text x="374.0" y="134" text-anchor="middle" font-size="11.5" font-weight="700" fill="#FFFFFF">Google Cloud Run · us-central1</text>
<text x="1002" y="686" text-anchor="end" font-size="10.5" fill="#4285F4" fill-opacity=".9">contenedor Docker</text>
<rect x="1100" y="200" width="340" height="430" rx="26" fill="#47A248" fill-opacity=".07" stroke="#47A248" stroke-opacity=".6" stroke-width="1.6" stroke-dasharray="7 6"/><rect x="1118" y="188" width="108.5" height="24" rx="12" fill="#47A248"/><text x="1172.2" y="204" text-anchor="middle" font-size="11.5" font-weight="700" fill="#FFFFFF">MongoDB Atlas</text>
<path d="M142.0,390.0 C236.6,390.0 215.4,240.0 310.0,240.0" fill="none" stroke="#7C8BA1" stroke-width="2.2" stroke-opacity=".9" marker-end="url(#a7C8BA1)"/>
<circle r="2.6" fill="#7C8BA1"><animateMotion dur="3.0s" repeatCount="indefinite" path="M142.0,390.0 C236.6,390.0 215.4,240.0 310.0,240.0"/></circle>
<path d="M142.0,170.0 C218.4,170.0 233.6,240.0 310.0,240.0" fill="none" stroke="#7C8BA1" stroke-width="2.2" stroke-opacity=".9" stroke-dasharray="6 6" marker-end="url(#a7C8BA1)"/>
<path d="M430.0,269.0 C430.0,299.0 430.0,361.0 430.0,391.0" fill="none" stroke="#7C8BA1" stroke-width="2.2" stroke-opacity=".9" marker-end="url(#a7C8BA1)"/>
<circle r="2.6" fill="#7C8BA1"><animateMotion dur="2.7s" repeatCount="indefinite" path="M430.0,269.0 C430.0,299.0 430.0,361.0 430.0,391.0"/></circle>
<path d="M550.0,240.0 C612.0,240.0 635.5,240.0 697.5,240.0" fill="none" stroke="#7C8BA1" stroke-width="2.2" stroke-opacity=".9" marker-end="url(#a7C8BA1)"/>
<circle r="2.6" fill="#7C8BA1"><animateMotion dur="2.8s" repeatCount="indefinite" path="M550.0,240.0 C612.0,240.0 635.5,240.0 697.5,240.0"/></circle>
<path d="M550.0,240.0 C645.8,240.0 594.2,420.0 690.0,420.0" fill="none" stroke="#7C8BA1" stroke-width="2.2" stroke-opacity=".9" marker-end="url(#a7C8BA1)"/>
<circle r="2.6" fill="#7C8BA1"><animateMotion dur="3.0s" repeatCount="indefinite" path="M550.0,240.0 C645.8,240.0 594.2,420.0 690.0,420.0"/></circle>
<path d="M932.5,240.0 C1032.5,240.0 1060.0,310.0 1160.0,310.0" fill="none" stroke="#7C8BA1" stroke-width="2.2" stroke-opacity=".9" marker-end="url(#a7C8BA1)"/>
<circle r="2.6" fill="#7C8BA1"><animateMotion dur="3.0s" repeatCount="indefinite" path="M932.5,240.0 C1032.5,240.0 1060.0,310.0 1160.0,310.0"/></circle>
<path d="M940.0,420.0 C1041.5,420.0 1058.5,520.0 1160.0,520.0" fill="none" stroke="#7C8BA1" stroke-width="2.2" stroke-opacity=".9" marker-end="url(#a7C8BA1)"/>
<circle r="2.6" fill="#7C8BA1"><animateMotion dur="3.0s" repeatCount="indefinite" path="M940.0,420.0 C1041.5,420.0 1058.5,520.0 1160.0,520.0"/></circle>
<path d="M932.5,600.0 C1033.8,600.0 1058.7,520.0 1160.0,520.0" fill="none" stroke="#7C8BA1" stroke-width="2.2" stroke-opacity=".9" stroke-dasharray="6 6" marker-end="url(#a7C8BA1)"/>
<path d="M302.5,600.0 C204.5,600.0 110.0,566.0 110.0,468.0" fill="none" stroke="#7C8BA1" stroke-width="2.2" stroke-opacity=".9" marker-end="url(#a7C8BA1)"/>
<circle r="2.6" fill="#7C8BA1"><animateMotion dur="3.0s" repeatCount="indefinite" path="M302.5,600.0 C204.5,600.0 110.0,566.0 110.0,468.0"/></circle>
<g filter="url(#sh)"><circle cx="110" cy="170" r="32" fill="#2EAD33" stroke="#E2E8F0" stroke-opacity=".35" stroke-width="2"/><g transform="translate(110,170) scale(1.15)"><circle r="9" fill="none" stroke="#FFFFFF" stroke-width="1.9" stroke-linecap="round" stroke-linejoin="round"/><path d="M-4.2,0.2 l2.8,3 l5.6,-6.2" fill="none" stroke="#FFFFFF" stroke-width="1.9" stroke-linecap="round" stroke-linejoin="round"/></g></g><text x="110" y="220" text-anchor="middle" font-size="13" font-weight="700" fill="#F1F5F9">qa-evidencia</text><text x="110" y="236" text-anchor="middle" font-size="11" fill="#94A3B8">AWS · E2E</text>
<g filter="url(#sh)"><circle cx="110" cy="390" r="32" fill="#64748B" stroke="#E2E8F0" stroke-opacity=".35" stroke-width="2"/><g transform="translate(110,390) scale(1.15)"><circle cx="0" cy="-5" r="4.6" fill="none" stroke="#FFFFFF" stroke-width="1.9" stroke-linecap="round" stroke-linejoin="round"/><path d="M-8.5,9 c0,-6 3.8,-8.5 8.5,-8.5 s8.5,2.5 8.5,8.5" fill="none" stroke="#FFFFFF" stroke-width="1.9" stroke-linecap="round" stroke-linejoin="round"/></g></g><text x="110" y="440" text-anchor="middle" font-size="13" font-weight="700" fill="#F1F5F9">Usuario</text><text x="110" y="456" text-anchor="middle" font-size="11" fill="#94A3B8">HTMX · EventSource</text>
<g filter="url(#sh)"><rect x="310.0" y="211.0" width="240.0" height="58" rx="18" fill="#162033" stroke="#009688" stroke-width="2"/><circle cx="339.0" cy="240" r="17" fill="#009688"/><g transform="translate(339.0,240)"><rect x="-10" y="-8" width="20" height="16" rx="3" fill="none" stroke="#FFFFFF" stroke-width="1.9" stroke-linecap="round" stroke-linejoin="round"/><path d="M-10,-3.2 h20" fill="none" stroke="#FFFFFF" stroke-width="1.9" stroke-linecap="round" stroke-linejoin="round"/><circle cx="-6.8" cy="-5.6" r=".9" fill="#FFFFFF"/><circle cx="-4" cy="-5.6" r=".9" fill="#FFFFFF"/></g></g>
<text x="366.0" y="238" font-size="13.5" font-weight="700" fill="#F1F5F9">Páginas y API REST</text>
<text x="366.0" y="255" font-size="11" fill="#94A3B8">Jinja2 · HTMX · /api</text>
<g filter="url(#sh)"><rect x="300.0" y="391.0" width="260.0" height="58" rx="18" fill="#162033" stroke="#D63AFF" stroke-width="2"/><circle cx="329.0" cy="420" r="17" fill="#D63AFF"/><g transform="translate(329.0,420)"><rect x="-7.5" y="-2" width="15" height="11" rx="2.5" fill="none" stroke="#FFFFFF" stroke-width="1.9" stroke-linecap="round" stroke-linejoin="round"/><path d="M-4.5,-2 v-3.5 a4.5,4.5 0 0 1 9,0 v3.5" fill="none" stroke="#FFFFFF" stroke-width="1.9" stroke-linecap="round" stroke-linejoin="round"/></g></g>
<text x="356.0" y="418" font-size="13.5" font-weight="700" fill="#F1F5F9">Sesión</text>
<text x="356.0" y="435" font-size="11" fill="#94A3B8">JWT en cookie · bcrypt + pimiento</text>
<g filter="url(#sh)"><rect x="302.5" y="571.0" width="255.0" height="58" rx="18" fill="#162033" stroke="#6366F1" stroke-width="2"/><circle cx="331.5" cy="600" r="17" fill="#6366F1"/><g transform="translate(331.5,600)"><path d="M-9,-3 h18 M-9,3 h18 M5,-7 l4,4 l-4,4 M-5,-1 l-4,4 l4,4" fill="none" stroke="#FFFFFF" stroke-width="1.9" stroke-linecap="round" stroke-linejoin="round"/></g></g>
<text x="358.5" y="598" font-size="13.5" font-weight="700" fill="#F1F5F9">Eventos en vivo</text>
<text x="358.5" y="615" font-size="11" fill="#94A3B8">SSE · avisa cada cambio de tarea</text>
<g filter="url(#sh)"><rect x="697.5" y="211.0" width="235.0" height="58" rx="18" fill="#162033" stroke="#E70488" stroke-width="2"/><circle cx="726.5" cy="240" r="17" fill="#E70488"/><g transform="translate(726.5,240)"><path d="M-9,9 h18 M-6,9 v-7 M-1,9 v-13 M4,9 v-9" fill="none" stroke="#FFFFFF" stroke-width="1.9" stroke-linecap="round" stroke-linejoin="round"/></g></g>
<text x="753.5" y="238" font-size="13.5" font-weight="700" fill="#F1F5F9">Analítica</text>
<text x="753.5" y="255" font-size="11" fill="#94A3B8">pandas · Plotly en servidor</text>
<g filter="url(#sh)"><rect x="690.0" y="391.0" width="250.0" height="58" rx="18" fill="#162033" stroke="#3776AB" stroke-width="2"/><circle cx="719.0" cy="420" r="17" fill="#3776AB"/><g transform="translate(719.0,420)"><path d="M-6,-9.5 h8 l5,5 v14 h-13 z M2,-9.5 v5 h5" fill="none" stroke="#FFFFFF" stroke-width="1.9" stroke-linecap="round" stroke-linejoin="round"/><path d="M-3,1 h7 M-3,4.5 h7" fill="none" stroke="#FFFFFF" stroke-width="1.9" stroke-linecap="round" stroke-linejoin="round"/></g></g>
<text x="746.0" y="418" font-size="13.5" font-weight="700" fill="#F1F5F9">Análisis de archivos</text>
<text x="746.0" y="435" font-size="11" fill="#94A3B8">CSV · Excel · JSON → Parquet</text>
<g filter="url(#sh)"><rect x="697.5" y="571.0" width="235.0" height="58" rx="18" fill="#162033" stroke="#475569" stroke-width="2"/><circle cx="726.5" cy="600" r="17" fill="#475569"/><g transform="translate(726.5,600)"><circle r="9" fill="none" stroke="#FFFFFF" stroke-width="1.9" stroke-linecap="round" stroke-linejoin="round"/><path d="M0,-5 v5 l3.5,2.5" fill="none" stroke="#FFFFFF" stroke-width="1.9" stroke-linecap="round" stroke-linejoin="round"/></g></g>
<text x="753.5" y="598" font-size="13.5" font-weight="700" fill="#F1F5F9">Barrido horario</text>
<text x="753.5" y="615" font-size="11" fill="#94A3B8">borra archivos &gt; 24 h</text>
<g filter="url(#sh)"><path d="M1160.0,283.0 v54 a110.0,9 0 0 0 220,0 v-54" fill="#162033" stroke="#47A248" stroke-width="2"/><ellipse cx="1270" cy="283.0" rx="110.0" ry="9" fill="#47A248" stroke="#47A248" stroke-width="2"/></g><g transform="translate(1184.0,316)"><ellipse cx="0" cy="-6.5" rx="8.5" ry="3" fill="none" stroke="#47A248" stroke-width="1.9" stroke-linecap="round" stroke-linejoin="round"/><path d="M-8.5,-6.5 v13 c0,1.7 3.8,3 8.5,3 s8.5,-1.3 8.5,-3 v-13 M-8.5,0 c0,1.7 3.8,3 8.5,3 s8.5,-1.3 8.5,-3" fill="none" stroke="#47A248" stroke-width="1.9" stroke-linecap="round" stroke-linejoin="round"/></g><text x="1204.0" y="315" font-size="13.5" font-weight="700" fill="#F1F5F9">MongoDB</text><text x="1204.0" y="331" font-size="11" fill="#94A3B8">usuarios · tareas</text>
<g filter="url(#sh)"><rect x="1160.0" y="491.0" width="220.0" height="58" rx="18" fill="#162033" stroke="#47A248" stroke-width="2"/><circle cx="1189.0" cy="520" r="17" fill="#47A248"/><g transform="translate(1189.0,520)"><path d="M-9,-6 h18 l-2.2,14 h-13.6 z" fill="none" stroke="#FFFFFF" stroke-width="1.9" stroke-linecap="round" stroke-linejoin="round"/><ellipse cx="0" cy="-6" rx="9" ry="2.6" fill="none" stroke="#FFFFFF" stroke-width="1.9" stroke-linecap="round" stroke-linejoin="round"/></g></g>
<text x="1216.0" y="518" font-size="13.5" font-weight="700" fill="#F1F5F9">GridFS</text>
<text x="1216.0" y="535" font-size="11" fill="#94A3B8">archivos en Parquet</text>
<rect x="202.2" y="305.0" width="47.5" height="20" rx="10" fill="#0F172A" stroke="#7C8BA1" stroke-opacity=".7"/><text x="226.0" y="318.8" text-anchor="middle" font-size="10.5" font-weight="600" fill="#E2E8F0">HTTPS</text>
<rect x="164.8" y="184.6" width="94.6" height="20" rx="10" fill="#0F172A" stroke="#7C8BA1" stroke-opacity=".7"/><text x="212.1" y="198.4" text-anchor="middle" font-size="10.5" font-weight="600" fill="#E2E8F0">2 veces al día</text>
<rect x="571.2" y="230.0" width="105.0" height="20" rx="10" fill="#0F172A" stroke="#7C8BA1" stroke-opacity=".7"/><text x="623.8" y="243.8" text-anchor="middle" font-size="10.5" font-weight="600" fill="#E2E8F0">tareas y filtros</text>
<rect x="582.0" y="333.5" width="82.8" height="20" rx="10" fill="#0F172A" stroke="#7C8BA1" stroke-opacity=".7"/><text x="623.4" y="347.3" text-anchor="middle" font-size="10.5" font-weight="600" fill="#E2E8F0">sube archivo</text>
<rect x="1013.2" y="265.0" width="66.1" height="20" rx="10" fill="#0F172A" stroke="#7C8BA1" stroke-opacity=".7"/><text x="1046.2" y="278.8" text-anchor="middle" font-size="10.5" font-weight="600" fill="#E2E8F0">consultas</text>
<rect x="1022.2" y="460.0" width="55.7" height="20" rx="10" fill="#0F172A" stroke="#7C8BA1" stroke-opacity=".7"/><text x="1050.0" y="473.8" text-anchor="middle" font-size="10.5" font-weight="600" fill="#E2E8F0">Parquet</text>
<rect x="1021.6" y="550.0" width="49.4" height="20" rx="10" fill="#0F172A" stroke="#7C8BA1" stroke-opacity=".7"/><text x="1046.2" y="563.8" text-anchor="middle" font-size="10.5" font-weight="600" fill="#E2E8F0">limpia</text>
<rect x="103.1" y="560.8" width="132.9" height="20" rx="10" fill="#0F172A" stroke="#7C8BA1" stroke-opacity=".7"/><text x="169.5" y="574.6" text-anchor="middle" font-size="10.5" font-weight="600" fill="#E2E8F0">actualiza indicadores</text>
<path d="M36,770 h30" stroke="#7C8BA1" stroke-width="2.2"/><circle cx="51" cy="770" r="2.6" fill="#7C8BA1"/>
<text x="74" y="774" font-size="11.5" fill="#94A3B8">Flujo de datos / petición</text>
<path d="M257.18,770 h30" stroke="#7C8BA1" stroke-width="2.2" stroke-dasharray="6 5"/>
<text x="295.18" y="774" font-size="11.5" fill="#94A3B8">Despliegue, tarea programada o proceso asíncrono</text>
<rect x="618.5450000000001" y="761" width="30" height="18" rx="9" fill="#64748B" fill-opacity=".15" stroke="#64748B" stroke-dasharray="4 3"/>
<text x="656.5450000000001" y="774" font-size="11.5" fill="#94A3B8">Plataforma o entorno donde corre</text>
</svg>